<svg width="129" height="62" viewBox="0 0 129 62" fill="none" xmlns="http://www.w3.org/2000/svg">
<path d="M21.8101 14.6527C22.154 11.8691 22.4853 9.08543 22.8292 6.27604C23.7465 6.16005 24.5363 6.1085 25.3007 5.94097C26.409 5.709 27.2498 5.95386 28.1416 6.73997C31.594 9.80711 31.5685 9.75556 30.9952 14.2403C29.7086 24.3696 28.4856 34.5246 27.2244 44.6668C26.6001 49.7314 25.9504 54.7832 25.3262 59.6674C22.7146 60.8917 20.9438 59.8736 18.9946 58.237C16.8799 56.4714 16.8289 54.2935 16.3958 51.9223C16.2174 53.0048 16.0136 54.0873 15.8607 55.1698C15.6314 56.8065 15.4913 58.456 15.1601 60.0669C15.0709 60.5051 14.4849 61.0979 14.0517 61.1623C10.3191 61.7165 6.90488 58.6622 6.58639 54.8219C6.10229 48.984 5.45258 43.159 4.8793 37.334C4.19137 30.3363 3.50344 23.3386 2.81551 16.3409C2.56072 13.8021 2.33141 11.2634 2.08936 8.72459C4.73917 7.80961 6.68831 8.22199 8.8795 10.0777C11.0707 11.9464 10.956 14.2789 11.6185 16.5471C11.7968 15.0135 11.9497 13.4799 12.1408 11.9593C12.3319 10.4901 12.5357 9.021 12.7396 7.47454C15.0327 6.86884 16.9945 6.79152 18.9437 8.7117C20.6763 10.4257 21.8101 12.1397 21.8101 14.6527ZM9.61839 37.9139C9.50373 37.9011 9.38908 37.9011 9.27442 37.8882C8.20431 28.1713 7.12145 18.4415 6.02586 8.56995C4.73917 8.78903 3.73275 8.95656 2.67537 9.13698C4.25507 25.2072 5.82202 41.0971 7.38898 57.0771C8.49732 56.8967 9.41456 56.7549 10.3318 56.6003C11.7331 46.2133 13.1217 35.9551 14.5104 25.6969C14.6123 25.7098 14.7142 25.7227 14.8161 25.7356C15.7461 35.736 16.6761 45.7235 17.606 55.8271C18.6762 55.7497 19.5552 55.6724 20.5361 55.5951C22.549 39.1898 24.5618 22.9004 26.5874 6.39202C25.5937 6.49512 24.7911 6.46934 24.065 6.70131C23.6955 6.8173 23.2369 7.34567 23.1859 7.73228C22.498 13.5444 21.8738 19.3694 21.2241 25.1943C20.7909 28.9961 20.3196 32.7849 19.8737 36.5866C19.7845 36.5866 19.6953 36.5866 19.6061 36.5866C18.536 26.9212 17.4786 17.2688 16.3958 7.52609C15.5295 7.60341 14.7651 7.56475 14.0899 7.78383C13.6695 7.92559 13.1217 8.44107 13.0708 8.84058C12.1663 16.2507 11.3127 23.6479 10.4465 31.058C10.1789 33.339 9.89866 35.6329 9.61839 37.9139Z" fill="#423665"/>
<path d="M62.3216 2.31968C64.8822 2.02327 67.4429 1.68821 70.0163 1.43047C71.8253 1.25005 73.4814 1.72687 74.8573 2.97692C76.1567 4.14965 77.3797 5.41259 78.7173 6.53377C80.055 7.65495 80.5391 9.05965 80.5391 10.7608C80.5263 16.9595 80.59 23.1453 80.4881 29.344C80.4626 30.6585 79.9148 31.973 79.5581 33.5452C80.7302 34.6535 80.8576 36.4319 80.8448 38.2877C80.8193 41.329 80.8448 44.3704 80.8321 47.4118C80.8193 51.2779 78.6154 54.1002 74.8955 54.7832C72.3603 55.2471 69.7742 55.4662 67.2008 55.724C66.8059 55.7626 66.2963 55.492 65.9651 55.2085C64.8313 54.2548 63.7102 53.2754 62.6656 52.2315C62.3726 51.9351 62.1687 51.4068 62.1687 50.9944C62.156 34.8726 62.156 18.7508 62.1687 2.62897C62.156 2.57742 62.207 2.53876 62.3216 2.31968ZM74.5133 29.7177C74.9847 28.1068 75.6471 26.831 75.6726 25.5294C75.7872 19.3951 75.7363 13.2609 75.7108 7.12658C75.6981 3.63417 73.94 1.88152 70.5004 1.9975C68.3983 2.07482 66.3091 2.51299 64.2071 2.57742C62.8694 2.62897 62.5509 3.10579 62.5637 4.38162C62.6274 18.8925 62.6528 33.4034 62.6783 47.9015C62.6783 48.9969 62.6783 50.1052 62.6783 51.3166C65.239 51.0202 67.5066 50.8913 69.7232 50.4789C74.3349 49.6026 75.9911 47.4891 75.9911 42.7982C75.9911 39.8599 76.0038 36.9345 75.9911 33.9963C75.9911 32.2694 75.8255 30.5812 74.5133 29.7177Z" fill="#423665"/>
<path d="M53.2256 31.7023C50.5758 31.9859 48.219 32.2565 45.8495 32.4627C45.5947 32.4885 44.8558 32.4885 44.4863 32.9782C44.2953 33.2359 44.2825 33.5194 44.2698 33.6612C44.2316 34.486 44.2188 36.2257 44.257 38.5196C45.1233 38.4681 45.875 38.5583 46.5501 38.365C47.1362 38.1975 47.9005 38.1717 48.6904 38.2748C49.2637 38.3521 50.3465 38.4939 50.9707 39.3573C51.2001 39.6795 51.302 40.0016 51.3529 40.2207C51.7733 40.4527 52.3976 40.9038 52.8817 41.677C54.041 43.5198 53.3276 45.6076 53.2129 45.904C51.7606 46.0844 50.2701 46.2906 48.7668 46.471C47.3145 46.6385 45.8495 46.7803 44.3335 46.9349C44.3335 47.837 44.3335 48.6103 44.3335 49.4866C44.9195 49.3577 45.7348 49.216 46.7158 49.1902C47.4801 49.1644 48.3082 49.1515 49.149 49.3706C51.0727 49.8732 52.1555 51.7161 53.1747 53.1465C53.7097 53.8811 53.3658 55.3245 53.2511 56.4199C53.2256 56.6518 52.5122 56.9482 52.0918 56.9998C48.219 57.4637 44.3462 57.889 40.4734 58.3272C40.4225 58.3272 40.3715 58.34 40.3205 58.34C39.4033 58.3143 35.4795 54.6414 35.4795 53.7007C35.4668 44.3188 35.4668 34.9241 35.4668 25.3232C37.9892 25.0268 40.5371 24.7175 43.085 24.434C44.1806 24.3051 45.3144 24.318 46.3845 24.0732C49.735 23.287 51.1491 26.0191 52.8562 27.8749C53.5314 28.5837 53.1237 30.2976 53.2256 31.7023ZM39.5562 39.6279C39.5562 35.7231 39.5562 32.0632 39.5562 28.3259C42.0658 28.0553 44.4609 27.7718 46.8814 27.5785C47.9005 27.5011 48.4865 27.2176 48.3082 26.0578C48.2318 25.5552 48.2572 25.0397 48.2318 24.4211C44.0532 24.885 40.053 25.3361 35.9891 25.8C35.9891 35.1819 35.9891 44.4348 35.9891 53.8811C40.2186 53.4172 44.308 52.9661 48.4356 52.5151C48.4356 51.5099 48.4356 50.6851 48.4356 49.6928C45.4418 50.015 42.5372 50.3242 39.5434 50.6464C39.5434 47.9659 39.5434 45.3756 39.5434 42.6177C42.5245 42.2698 45.48 41.9218 48.4356 41.5739C48.4356 40.6073 48.4356 39.7697 48.4356 38.7645C45.48 39.0351 42.6136 39.3186 39.5562 39.6279Z" fill="#423665"/>
<path d="M94.5273 41.6512C94.3235 42.128 93.954 42.6049 93.9413 43.0946C93.8903 45.6591 93.8776 48.2108 93.9413 50.7753C93.9795 52.2187 93.4699 52.6826 92.0049 52.9919C88.6162 53.7136 87.4187 50.8397 85.4186 49.2933C85.2402 49.1515 85.2402 48.7005 85.2402 48.3912C85.2402 39.1124 85.253 29.8337 85.2657 20.555C85.2657 20.5034 85.3039 20.4648 85.4823 20.1168C88.4251 19.8591 91.5463 19.3822 94.6674 19.3565C97.5211 19.3436 103.56 24.885 103.776 27.7589C104.056 31.3286 104.655 34.9886 103.012 38.4552C102.91 38.6743 102.846 38.9707 102.897 39.2027C103.241 40.6847 103.56 42.1667 104.018 43.6101C104.197 44.1513 104.63 44.7441 105.114 45.0405C107.649 46.587 107.955 48.868 107.369 51.4712C104.49 51.3037 101.623 51.381 99.3556 48.9324C97.4064 46.819 94.5528 45.4014 95.177 41.677C94.9605 41.6641 94.7439 41.6641 94.5273 41.6512ZM102.668 44.0482C99.3046 43.7132 99.0753 43.4425 99.088 40.0919C99.1008 38.2748 99.139 36.4577 98.0434 35.4138C98.4383 33.6741 98.9224 32.2694 99.0371 30.8389C99.2027 28.9316 99.088 26.9985 99.0753 25.0784C99.0371 21.5473 97.0497 19.6271 93.5718 19.8591C91.4698 20.0008 89.3806 20.4261 87.2913 20.4905C85.9409 20.5292 85.6479 21.0189 85.6606 22.2818C85.7116 30.5425 85.6861 38.8032 85.6861 47.0767C85.6861 47.5793 85.6861 48.0819 85.6861 48.7262C86.9728 48.5587 87.9792 48.4298 89.1513 48.2752C89.1513 44.641 89.1513 41.0971 89.1513 37.5016C90.5144 37.3598 91.7119 37.2051 92.9221 37.1149C94.7821 36.9732 95.6611 37.7722 95.7503 39.6795C95.8013 40.9038 95.5592 42.1796 95.8267 43.3394C96.0815 44.3833 96.6421 45.788 97.4574 46.1488C99.0116 46.8447 100.846 46.9092 102.681 47.2571C102.668 45.9555 102.668 45.0534 102.668 44.0482Z" fill="#423665"/>
<path d="M109.382 32.2565C109.382 29.692 109.382 27.1403 109.382 24.5758C109.382 19.872 112.452 16.7146 117.114 16.5729C119.369 16.5084 121.344 17.0626 122.962 18.7766C124.019 19.8849 125.217 20.8514 126.376 21.8437C127.574 22.8747 128.16 24.1376 128.147 25.7614C128.109 31.5735 128.16 37.3856 128.121 43.1977C128.109 46.2519 127.038 47.8499 124.185 48.8809C120.325 50.2727 116.643 50.2985 113.509 47.0509C112.668 46.1875 111.522 45.5689 110.859 44.5895C110.146 43.5585 109.522 42.2569 109.433 41.0326C109.241 38.133 109.382 35.1948 109.382 32.2565ZM123.331 30.6456C123.331 27.6558 123.306 24.666 123.344 21.6891C123.357 20.1555 122.694 19.0601 121.471 18.2224C118.707 16.328 114.337 16.7662 111.738 19.4725C110.859 20.3875 110.019 21.8179 109.993 23.0422C109.827 29.1765 109.891 35.3108 109.98 41.445C110.006 43.5199 111.05 44.8601 113.114 45.0276C115.216 45.1952 117.458 45.1436 119.471 44.5895C122.465 43.7647 123.344 42.1796 123.344 38.9965C123.331 36.2 123.331 33.4292 123.331 30.6456Z" fill="#423665"/>
<path d="M9.61831 37.914C9.89858 35.62 10.1788 33.339 10.4464 31.0451C11.3127 23.6479 12.1535 16.2378 13.0707 8.84058C13.1217 8.44108 13.6695 7.9256 14.0899 7.78384C14.7651 7.56476 15.5294 7.60342 16.3957 7.5261C17.4658 17.2688 18.5359 26.9341 19.6061 36.5866C19.6952 36.5866 19.7844 36.5866 19.8736 36.5866C20.3195 32.7849 20.7908 28.9961 21.224 25.1944C21.8864 19.3694 22.4979 13.5444 23.1859 7.73229C23.2368 7.34568 23.6954 6.8173 24.0649 6.70132C24.791 6.48224 25.5936 6.49513 26.5873 6.39203C24.5617 22.9004 22.5489 39.1898 20.536 55.5951C19.5551 55.6724 18.6761 55.7369 17.606 55.8271C16.6632 45.7236 15.7333 35.736 14.816 25.7356C14.7141 25.7227 14.6122 25.7098 14.5103 25.697C13.1217 35.968 11.7331 46.2262 10.319 56.6003C9.40174 56.7421 8.49724 56.8967 7.37616 57.0771C5.80921 41.0842 4.25499 25.2072 2.67529 9.13699C3.73267 8.95657 4.73909 8.78904 6.03852 8.58284C7.13411 18.4544 8.20423 28.1842 9.28708 37.9011C9.389 37.9011 9.50366 37.914 9.61831 37.914Z" fill="white"/>
<path d="M74.5131 29.7178C75.8253 30.5683 75.9782 32.2565 75.9909 33.9963C76.0036 36.9345 75.9909 39.8599 75.9909 42.7982C75.9909 47.502 74.3348 49.6155 69.7231 50.4789C67.5064 50.8913 65.2388 51.0202 62.6781 51.3166C62.6781 50.1052 62.6781 49.0098 62.6781 47.9015C62.6527 33.3906 62.6399 18.8797 62.5635 4.38165C62.5635 3.10582 62.8692 2.61611 64.2069 2.57745C66.3089 2.50013 68.3982 2.06197 70.5002 1.99753C73.9398 1.88155 75.6979 3.6342 75.7106 7.12661C75.7361 13.2609 75.7871 19.3952 75.6724 25.5294C75.6469 26.831 74.9845 28.1069 74.5131 29.7178ZM66.0159 28.9445C67.3026 28.8157 68.4491 28.6868 69.5957 28.5837C71.3028 28.4419 72.271 27.4496 72.271 25.6841C72.2837 19.5498 72.2837 13.4284 72.271 7.29414C72.271 5.72191 71.341 4.79404 69.7995 4.88425C68.551 4.94868 67.3153 5.16776 66.0031 5.32241C66.0159 13.1707 66.0159 20.9287 66.0159 28.9445ZM66.1815 48.069C67.3663 47.9659 68.4619 47.8628 69.5574 47.7597C69.7613 47.734 69.9779 47.6953 70.1817 47.6438C71.6849 47.27 72.6022 46.136 72.6149 44.538C72.6404 41.0713 72.6404 37.6176 72.6149 34.1509C72.6022 32.4369 71.5703 31.406 69.8377 31.4575C68.6402 31.4962 67.4427 31.7153 66.1942 31.857C66.1815 37.2825 66.1815 42.6307 66.1815 48.069Z" fill="white"/>
<path d="M39.5564 39.6279C42.6138 39.3186 45.4802 39.0351 48.423 38.7516C48.423 39.7568 48.423 40.5945 48.423 41.561C45.4547 41.909 42.5119 42.2569 39.5309 42.6049C39.5309 45.3627 39.5309 47.953 39.5309 50.6336C42.5247 50.3114 45.4293 50.0021 48.423 49.6799C48.423 50.6722 48.423 51.497 48.423 52.5022C44.3082 52.9532 40.2061 53.4043 35.9766 53.8682C35.9766 44.4219 35.9766 35.1819 35.9766 25.7872C40.0405 25.3361 44.0407 24.8851 48.2192 24.4082C48.2447 25.0268 48.2192 25.5423 48.2956 26.0449C48.474 27.2047 47.888 27.4883 46.8688 27.5656C44.4611 27.7589 42.0533 28.0553 39.5436 28.313C39.5564 32.0632 39.5564 35.7231 39.5564 39.6279Z" fill="white"/>
<path d="M102.668 44.0482C102.668 45.0534 102.668 45.9555 102.668 47.27C100.833 46.922 98.9988 46.8576 97.4446 46.1617C96.6293 45.8009 96.0687 44.3833 95.8139 43.3523C95.5337 42.1925 95.7885 40.9166 95.7375 39.6924C95.6611 37.7851 94.7693 36.9861 92.9093 37.1278C91.6991 37.218 90.5016 37.3727 89.1385 37.5144C89.1385 41.1099 89.1385 44.6539 89.1385 48.2881C87.9792 48.4427 86.96 48.5716 85.6733 48.7391C85.6733 48.1077 85.6733 47.5922 85.6733 47.0896C85.6733 38.8289 85.6988 30.5683 85.6478 22.2947C85.6351 21.0189 85.9408 20.5421 87.2785 20.5034C89.3805 20.439 91.4698 20.0137 93.5591 19.8719C97.0369 19.64 99.037 21.573 99.0625 25.0912C99.088 27.0114 99.1899 28.9445 99.0243 30.8518C98.9096 32.2823 98.4255 33.6869 98.0306 35.4267C99.1262 36.4706 99.088 38.2877 99.0752 40.1047C99.0625 43.4425 99.3046 43.7131 102.668 44.0482ZM89.062 34.6148C90.6545 34.4086 92.1068 34.2669 93.5463 34.022C94.884 33.8029 95.7502 33.0813 95.7375 31.5606C95.712 29.3698 95.7502 27.1918 95.7248 25.001C95.712 23.5834 94.9094 22.8102 93.5463 22.8231C92.2851 22.836 91.0239 22.9777 89.7754 23.171C89.5079 23.2097 89.1002 23.6994 89.1002 23.9958C89.0493 27.5011 89.062 31.0193 89.062 34.6148Z" fill="white"/>
<path d="M123.331 30.6456C123.331 33.4163 123.331 36.1871 123.331 38.9707C123.331 42.1409 122.452 43.7389 119.459 44.5637C117.446 45.1179 115.204 45.1823 113.102 45.0019C111.038 44.8343 110.006 43.507 109.968 41.4192C109.891 35.285 109.815 29.1507 109.98 23.0164C110.019 21.805 110.847 20.3746 111.726 19.4467C114.325 16.7404 118.694 16.3022 121.459 18.1966C122.682 19.0343 123.344 20.1297 123.331 21.6633C123.306 24.6789 123.331 27.6687 123.331 30.6456ZM113.446 31.5606C113.458 31.5606 113.458 31.5606 113.446 31.5606C113.446 34.3829 113.407 37.2051 113.484 40.0274C113.509 40.6976 113.79 41.5997 114.261 41.9605C115.509 42.9013 116.936 42.6564 118.287 42.012C119.433 41.4837 119.854 40.5429 119.854 39.3058C119.841 33.6612 119.866 28.0166 119.828 22.3721C119.828 21.8308 119.662 21.0962 119.293 20.7998C118.159 19.8462 116.822 19.7302 115.458 20.3617C114.248 20.9287 113.369 21.6762 113.407 23.2355C113.509 26.032 113.446 28.8027 113.446 31.5606Z" fill="white"/>
<path d="M66.0156 28.9445C66.0156 20.9287 66.0156 13.1706 66.0156 5.32236C67.3278 5.16772 68.5635 4.94864 69.812 4.8842C71.3535 4.79399 72.2707 5.72187 72.2835 7.2941C72.2962 13.4284 72.2962 19.5498 72.2835 25.684C72.2835 27.4496 71.3152 28.4419 69.6082 28.5836C68.4489 28.6867 67.3151 28.8156 66.0156 28.9445ZM70.8184 27.2563C70.8694 27.2434 70.984 27.2176 71.0859 27.1403C71.1879 27.063 71.2516 26.9727 71.277 26.9212C71.3025 24.0216 71.3152 21.1091 71.3407 18.2095C71.3662 15.3099 71.3789 12.3974 71.4044 9.4978C71.3407 9.45913 71.2388 9.3947 71.0859 9.38181C70.9713 9.36892 70.8821 9.38181 70.8184 9.3947C70.8184 15.3486 70.8184 21.3024 70.8184 27.2563Z" fill="#423665"/>
<path d="M66.1816 48.069C66.1816 42.6306 66.1816 37.2825 66.1816 31.8828C67.4301 31.741 68.6276 31.5219 69.8251 31.4833C71.5577 31.4317 72.6023 32.4627 72.6023 34.1767C72.6278 37.6433 72.6278 41.0971 72.6023 44.5637C72.5896 46.1617 71.6724 47.2829 70.1691 47.6695C69.9653 47.7211 69.7614 47.7726 69.5449 47.7855C68.462 47.8628 67.3664 47.9659 66.1816 48.069ZM70.9207 46.355C71.0099 46.3292 71.1755 46.2777 71.3411 46.1102C71.5067 45.9555 71.5704 45.7751 71.6087 45.6978C71.6214 42.5533 71.6341 39.396 71.6469 36.2515C71.4176 36.4964 71.1883 36.7412 70.9589 36.9861C70.9462 40.1176 70.9335 43.2363 70.9207 46.355Z" fill="#423665"/>
<path d="M89.0616 34.6148C89.0616 31.0193 89.0489 27.5011 89.0871 23.9958C89.0871 23.7123 89.4947 23.2226 89.7623 23.171C91.0107 22.9777 92.272 22.836 93.5332 22.8231C94.8963 22.8102 95.6989 23.5834 95.7116 25.001C95.7371 27.1918 95.7116 29.3698 95.7244 31.5606C95.7371 33.0813 94.8708 33.79 93.5332 34.022C92.1191 34.2669 90.654 34.4086 89.0616 34.6148ZM93.8644 33.1844C94.0045 33.1199 94.2211 33.0039 94.4249 32.7977C94.6288 32.5915 94.7562 32.3854 94.8199 32.2436C94.8326 30.5038 94.8453 28.777 94.8581 27.0372C94.7434 27.0759 94.4886 27.1532 94.2593 27.398C94.0555 27.6171 93.979 27.8362 93.9408 27.9522C93.9153 29.7048 93.8899 31.4446 93.8644 33.1844Z" fill="#423665"/>
<path d="M113.446 31.5606C113.446 28.7898 113.509 26.0191 113.42 23.2613C113.369 21.689 114.261 20.9545 115.471 20.3874C116.834 19.756 118.172 19.8719 119.306 20.8256C119.675 21.1349 119.828 21.8566 119.841 22.3978C119.879 28.0424 119.853 33.6869 119.866 39.3315C119.866 40.5687 119.446 41.4965 118.299 42.0378C116.936 42.6693 115.522 42.9141 114.274 41.9863C113.789 41.6254 113.509 40.7233 113.496 40.0532C113.407 37.2051 113.458 34.3829 113.446 31.5606C113.458 31.5606 113.458 31.5606 113.446 31.5606ZM118.248 41.3161C118.427 41.3032 118.63 41.2517 118.758 41.0842C118.873 40.9424 118.873 40.762 118.873 40.6975C118.873 40.2723 118.885 34.0091 118.885 25.4134C118.834 25.4134 118.605 25.3876 118.414 25.5423C118.236 25.684 118.146 25.916 118.185 26.1609C118.223 28.5063 118.236 30.8647 118.248 33.2488C118.261 35.9551 118.261 38.6485 118.248 41.3161Z" fill="#423665"/>
</svg>
