<svg width="34" height="34" viewBox="0 0 34 34" fill="none" xmlns="http://www.w3.org/2000/svg">
<circle cx="17" cy="17" r="17" fill="#9B9B9B"/>
<path d="M13 8C10.243 8 8 10.243 8 13V21C8 23.757 10.243 26 13 26H21C23.757 26 26 23.757 26 21V13C26 10.243 23.757 8 21 8H13ZM13 10H21C22.654 10 24 11.346 24 13V21C24 22.654 22.654 24 21 24H13C11.346 24 10 22.654 10 21V13C10 11.346 11.346 10 13 10ZM22 11C21.7348 11 21.4804 11.1054 21.2929 11.2929C21.1054 11.4804 21 11.7348 21 12C21 12.2652 21.1054 12.5196 21.2929 12.7071C21.4804 12.8946 21.7348 13 22 13C22.2652 13 22.5196 12.8946 22.7071 12.7071C22.8946 12.5196 23 12.2652 23 12C23 11.7348 22.8946 11.4804 22.7071 11.2929C22.5196 11.1054 22.2652 11 22 11ZM17 12C14.243 12 12 14.243 12 17C12 19.757 14.243 22 17 22C19.757 22 22 19.757 22 17C22 14.243 19.757 12 17 12ZM17 14C18.654 14 20 15.346 20 17C20 18.654 18.654 20 17 20C15.346 20 14 18.654 14 17C14 15.346 15.346 14 17 14Z" fill="white"/>
</svg>
