<svg width="63" height="14" viewBox="0 0 63 14" fill="none" xmlns="http://www.w3.org/2000/svg">
<path d="M7.28885 10.12C8.90694 9.92069 10.2141 8.65115 10.4205 7.07833C10.4926 6.54151 10.4367 5.99578 10.2572 5.48324C10.0777 4.97071 9.77943 4.50508 9.38529 4.12227C8.99115 3.73947 8.51174 3.44972 7.98404 3.27539C7.45634 3.10106 6.89445 3.04681 6.34174 3.11682C4.72236 3.31734 3.41524 4.58688 3.21008 6.15845C3.138 6.69527 3.19386 7.241 3.37335 7.75353C3.55284 8.26606 3.85116 8.7317 4.24529 9.1145C4.63943 9.49731 5.11885 9.78705 5.64655 9.96138C6.17425 10.1357 6.73614 10.19 7.28885 10.12ZM7.5095 0.0338376C9.06733 0.193119 10.5216 0.866994 11.6293 1.94279C12.7369 3.01859 13.4307 4.4311 13.5947 5.94414C14.0218 10.13 10.4295 13.619 6.11851 13.2042C4.56091 13.0446 3.10689 12.3706 1.99951 11.2949C0.892129 10.2191 0.198493 8.80674 0.0345501 7.29389C-0.392553 3.10805 3.19976 -0.380987 7.5095 0.0338376ZM17.2516 0.295766H27.2272C27.6066 0.295766 27.8208 0.716856 27.5924 1.01012L20.6903 9.85427H26.0982C27.084 9.85427 27.8595 10.7253 27.6556 11.7178C27.5059 12.446 26.8027 12.9423 26.0388 12.9423H15.2051C14.8296 12.9423 14.6167 12.5249 14.8425 12.2354L21.7497 3.38376H17.3109C16.547 3.38376 15.8438 2.88622 15.6941 2.15934C15.489 1.16677 16.2658 0.295766 17.2516 0.295766ZM60.5438 0.330857C61.5735 0.120312 62.4793 0.877272 62.4793 1.83976V12.4961C62.4793 12.8683 62.0367 13.0751 61.7374 12.8445L53.1321 6.21359V11.4008C53.1321 12.3633 52.2263 13.1202 51.1966 12.9097C50.4585 12.7593 49.9527 12.0913 49.9527 11.3594V0.740668C49.9527 0.368454 50.3953 0.161669 50.6946 0.392266L59.3012 7.02319V1.88112C59.3012 1.14923 59.8083 0.482499 60.5451 0.330857H60.5438ZM38.137 0C43.4055 0 47.6765 2.96267 47.6765 6.61713C47.6765 10.2716 43.4055 13.2343 38.137 13.2343C32.8686 13.2343 28.5975 10.2716 28.5975 6.61713C28.5975 2.96267 32.8686 0 38.137 0ZM38.137 3.088C34.497 3.088 31.7769 4.95157 31.7769 6.61713C31.7769 8.2827 34.497 10.1463 38.137 10.1463C41.7771 10.1463 44.4971 8.28395 44.4971 6.61713C44.4971 4.95032 41.7771 3.088 38.137 3.088Z" fill="white"/>
</svg>
