<svg width="34" height="34" viewBox="0 0 34 34" fill="none" xmlns="http://www.w3.org/2000/svg">
<path d="M17.0002 0.200012C7.7224 0.200012 0.200195 7.72221 0.200195 17C0.200195 26.2778 7.7224 33.8 17.0002 33.8C26.278 33.8 33.8002 26.2778 33.8002 17C33.8002 7.72221 26.278 0.200012 17.0002 0.200012ZM25.9056 22.5538L23.2904 22.5902C23.2904 22.5902 22.7262 22.7008 21.9884 22.1912C21.0098 21.5192 20.0872 19.7706 19.3676 19.9974C18.6382 20.2298 18.6606 21.8034 18.6606 21.8034C18.6606 21.8034 18.6662 22.0806 18.4996 22.2612C18.319 22.4558 17.9648 22.4362 17.9648 22.4362H16.793C16.793 22.4362 14.2086 22.6504 11.9308 20.276C9.45 17.6874 7.2576 12.5788 7.2576 12.5788C7.2576 12.5788 7.1288 12.2568 7.266 12.0916C7.4214 11.9096 7.83999 11.904 7.83999 11.904L10.64 11.89C10.64 11.89 10.9032 11.9362 11.0936 12.0762C11.249 12.191 11.3372 12.4066 11.3372 12.4066C11.3372 12.4066 11.7894 13.5532 12.39 14.592C13.5604 16.6164 14.1036 17.0602 14.5012 16.8432C15.0808 16.5268 14.9072 13.9816 14.9072 13.9816C14.9072 13.9816 14.9184 13.0576 14.616 12.646C14.3808 12.3254 13.9384 12.2302 13.7452 12.2064C13.587 12.1854 13.8446 11.8186 14.1806 11.6534C14.6846 11.407 15.575 11.393 16.6264 11.4028C17.4454 11.4112 17.682 11.4616 18.0012 11.54C18.9672 11.7738 18.6396 12.6754 18.6396 14.8384C18.6396 15.5314 18.515 16.5058 19.0134 16.8264C19.229 16.965 19.754 16.8474 21.063 14.6158C21.686 13.5574 22.1522 12.3142 22.1522 12.3142C22.1522 12.3142 22.2544 12.093 22.4126 11.9978C22.575 11.8998 22.7934 11.9306 22.7934 11.9306L25.7404 11.9124C25.7404 11.9124 26.6252 11.806 26.7694 12.2078C26.9206 12.6278 26.439 13.6092 25.235 15.215C23.2582 17.8526 23.0384 17.6076 24.6806 19.1336C26.2486 20.591 26.572 21.2994 26.6266 21.389C27.2748 22.4684 25.9056 22.5538 25.9056 22.5538Z" fill="#9B9B9B"/>
</svg>
