<svg width="90" height="12" viewBox="0 0 90 12" fill="none" xmlns="http://www.w3.org/2000/svg">
<path d="M2.74703 10.9596L0 1.15947H1.80197L3.9126 8.68648L6.17464 1.15881L7.85438 1.15947L10.1243 8.72648L12.2445 1.16132L14.0464 1.15881L11.2982 10.9579L9.20952 10.9558L7.0152 3.63719L4.81883 10.9577L2.74703 10.9596Z" fill="white"/>
<path d="M15.2891 1.16455H17.0044V10.9533H15.2891V1.16455Z" fill="white"/>
<path d="M20.672 9.41777H24.8479V10.9533H18.9922V1.16455H20.672V9.41777Z" fill="white"/>
<path d="M30.1238 1.17584C31.5315 1.17584 32.7027 1.65004 33.6254 2.58713C34.5599 3.52422 35.0331 4.68715 35.0331 6.06455C35.0331 7.4307 34.5599 8.59358 33.6254 9.54196C32.7027 10.4791 31.5315 10.9533 30.1238 10.9533H26.0898V1.16455H30.1238V1.17584ZM30.1238 9.42906C31.0938 9.42906 31.8864 9.11293 32.4779 8.48068C33.093 7.84843 33.4006 7.03553 33.4006 6.07583C33.4006 5.0936 33.093 4.30327 32.4779 3.67102C31.8746 3.03873 31.082 2.7226 30.1238 2.7226H27.7815V9.42906H30.1238Z" fill="white"/>
<path d="M44.0827 8.1569C44.0827 8.95892 43.7872 9.62539 43.1839 10.1563C42.5805 10.6872 41.8706 10.9583 40.9954 10.9583H36.6064V1.16455H40.6759C41.5159 1.16455 42.2254 1.43568 42.8051 1.94399C43.3969 2.4636 43.6808 3.1075 43.6808 3.87562C43.6808 4.73414 43.3256 5.38933 42.6397 5.87507C43.5386 6.32693 44.0827 7.14023 44.0827 8.1569ZM38.298 2.67826V5.25378H40.6875C41.433 5.25378 42.0007 4.68896 42.0007 3.96602C42.0007 3.24304 41.433 2.67826 40.6875 2.67826H38.298ZM41.007 9.44466C41.7877 9.44466 42.4031 8.84595 42.4031 8.07783C42.4031 7.30967 41.7877 6.71099 41.007 6.71099H38.298V9.45595H41.007V9.44466Z" fill="white"/>
<path d="M47.3593 9.42206H51.9021V10.9583H45.6797V1.16455H51.8312V2.70083H47.3593V5.24246H51.4644V6.76745H47.3593V9.42206Z" fill="white"/>
<path d="M59.261 10.9583L57.0841 7.38874H55.0966V10.9583H53.417V1.16455H57.5217C58.4446 1.16455 59.2254 1.46954 59.8524 2.09083C60.491 2.68954 60.8225 3.43509 60.8225 4.31619C60.8225 5.55877 60.0061 6.69966 58.7877 7.15151L61.118 10.9583H59.261ZM55.0966 2.67822V5.95411H57.5101C58.409 5.95411 59.1189 5.23117 59.1189 4.31619C59.1189 3.41248 58.3974 2.67822 57.5101 2.67822H55.0966Z" fill="white"/>
<path d="M68.2392 10.9582L66.0744 7.38672H64.0868V10.9582H62.4072V1.1593H66.512C67.4349 1.1593 68.2156 1.46447 68.8426 2.08608C69.4812 2.68509 69.8127 3.431 69.8127 4.31257C69.8127 5.5558 68.9964 6.69732 67.778 7.14939L70.1082 10.9582H68.2392ZM64.0868 2.67377V5.95137H66.5004C67.3992 5.95137 68.1091 5.22803 68.1091 4.31257C68.1091 3.40843 67.3876 2.67377 66.5004 2.67377H64.0868Z" fill="white"/>
<path d="M71.3389 1.16046H73.0189V10.9582H71.3389V1.16046Z" fill="white"/>
<path d="M76.6859 9.42206H81.2286V10.9583H75.0059V1.16455H81.1574V2.70083H76.6859V5.24246H80.7906V6.76745H76.6859V9.42206Z" fill="white"/>
<path d="M82.3994 8.72904L83.8544 7.91614C84.2684 9.0226 85.1084 9.56452 86.3977 9.56452C87.6753 9.56452 88.3023 9.04517 88.3023 8.27745C88.3023 7.871 88.1249 7.57744 87.7938 7.37422C87.4623 7.1597 86.8473 6.92258 85.972 6.67421C84.9899 6.39195 84.505 6.21129 83.8188 5.78227C83.1565 5.33067 82.825 4.6871 82.825 3.80648C82.825 2.93711 83.1445 2.25971 83.7952 1.75165C84.4342 1.23226 85.2149 0.983887 86.1258 0.983887C87.7702 0.983887 89.0358 1.79679 89.6984 3.14033L88.2787 3.91938C87.8527 3.01615 87.1312 2.55323 86.1258 2.55323C85.1437 2.55323 84.5167 3.02743 84.5167 3.77258C84.5167 4.4952 85.0135 4.83389 86.587 5.29678C86.9774 5.421 87.2613 5.51133 87.4387 5.57904C87.628 5.63551 87.8763 5.73712 88.1958 5.86131C88.5273 5.98549 88.7875 6.13229 88.9413 6.25647C89.4854 6.66293 90.0648 7.32904 89.9939 8.26616C89.9939 9.14678 89.6628 9.85807 88.9885 10.3774C88.3259 10.8968 87.4507 11.1452 86.3624 11.1452C84.3749 11.1339 82.9315 10.2307 82.3994 8.72904Z" fill="white"/>
</svg>
