<svg width="34" height="34" viewBox="0 0 34 34" fill="none" xmlns="http://www.w3.org/2000/svg">
<circle cx="17" cy="17" r="17" fill="#9B9B9B"/>
<path fill-rule="evenodd" clip-rule="evenodd" d="M25.6154 11.6301C25.5471 11.3764 25.3419 11.171 25.0876 11.1025L25.0798 11.1004C24.8609 11.0405 24.2906 10.9608 23.3876 10.8934C22.5416 10.8302 21.5522 10.7872 20.5974 10.7581C19.6458 10.7292 18.7449 10.7147 18.0808 10.7074C17.7492 10.7038 17.4776 10.702 17.2894 10.7011C17.1954 10.7006 17.1223 10.7004 17.073 10.7003L16.9264 10.7003C16.8771 10.7004 16.8039 10.7006 16.7098 10.701C16.5215 10.7019 16.2498 10.7036 15.918 10.7071C15.2536 10.7141 14.3521 10.7281 13.4 10.756C12.4446 10.7839 11.454 10.8254 10.6065 10.8862C9.71847 10.95 9.14593 11.0255 8.91244 11.0845C8.67945 11.1524 8.45579 11.3712 8.38542 11.6261C8.21863 12.2648 8.11076 13.3939 8.05402 14.5038C8.02704 15.0315 8.01348 15.5099 8.0067 15.8564C8.00331 16.0292 8.00164 16.1681 8.00081 16.2627L8.00009 16.3698L8.00001 16.3957L8 16.4014V16.4026L8.00001 16.4082L8.00009 16.4344L8.00081 16.542C8.00164 16.6371 8.00331 16.7767 8.0067 16.9502C8.01348 17.2982 8.02705 17.7782 8.05403 18.307C8.11096 19.4229 8.21919 20.55 8.38485 21.1757C8.45397 21.4289 8.65889 21.6332 8.91217 21.7014L8.91499 21.7021C9.14159 21.7635 9.71739 21.8432 10.6197 21.9105C11.4667 21.9737 12.4556 22.0167 13.4092 22.0458C14.3597 22.0747 15.2589 22.0892 15.9215 22.0965C16.2525 22.1001 16.5234 22.1019 16.7111 22.1028C16.8049 22.1033 16.8778 22.1035 16.9269 22.1036L17.0734 22.1036C17.1227 22.1035 17.1959 22.1033 17.29 22.1029C17.4782 22.102 17.75 22.1002 18.0818 22.0968C18.7462 22.0898 19.6476 22.0758 20.5998 22.0479C21.5551 22.02 22.5458 21.9785 23.3933 21.9177C24.2884 21.8534 24.863 21.7772 25.0929 21.7179C25.343 21.6488 25.5453 21.4465 25.6145 21.1958C25.7813 20.5569 25.8892 19.4279 25.9459 18.3181C25.9729 17.7904 25.9864 17.3121 25.9932 16.9656C25.9966 16.7928 25.9983 16.6539 25.9991 16.5593L25.9998 16.4523L25.9999 16.4263L25.9999 16.4207V16.41L26 16.4039L26 16.378C26 16.3544 26 16.3182 25.9998 16.2709C25.9994 16.1762 25.9983 16.0369 25.9956 15.8637C25.9902 15.5163 25.9783 15.0369 25.9524 14.5085C25.8977 13.3894 25.7888 12.2634 25.6177 11.6386L25.6154 11.6301ZM27.9999 16.4201C27.9999 16.4201 27.9999 19.99 27.5469 21.7116C27.2931 22.6539 26.5502 23.3969 25.6078 23.6505C23.8862 24.1037 17 24.1037 17 24.1037C17 24.1037 10.1317 24.1037 8.39214 23.6326C7.44969 23.3788 6.7068 22.6357 6.45302 21.6935C6 19.99 6 16.4019 6 16.4019C6 16.4019 6 12.8319 6.45302 11.1104C6.70663 10.1681 7.46781 9.40696 8.39197 9.15335C10.1136 8.70016 16.9998 8.70016 16.9998 8.70016C16.9998 8.70016 23.8862 8.70016 25.6078 9.17131C26.5501 9.42509 27.2931 10.168 27.5467 11.1104C28.018 12.8319 27.9999 16.4201 27.9999 16.4201Z" fill="white"/>
<path d="M16.3076 15.6987L17.5286 16.4019L16.3076 17.1052V15.6987Z" stroke="white" stroke-width="3" stroke-linecap="round" stroke-linejoin="round"/>
</svg>
